<svg fill="none" xmlns="http://www.w3.org/2000/svg" viewBox="0 1 23 32"> <path d="M16 33C11.7565 33 7.68687 31.3143 4.68629 28.3137C1.68571 25.3131 -8.8487e-07 21.2435 -6.99382e-07 17C-5.13895e-07 12.7565 1.68571 8.68687 4.68629 5.68629C7.68687 2.68571 11.7565 1 16 0.999999L16 6.76C13.2842 6.76 10.6796 7.83885 8.75923 9.75923C6.83885 11.6796 5.76 14.2842 5.76 17C5.76 19.7158 6.83885 22.3204 8.75923 24.2408C10.6796 26.1611 13.2842 27.24 16 27.24L16 33Z" fill="#0FBA68"/> <path d="M16 24C12.134 24 9 20.866 9 17C9 13.134 12.134 10 16 10C19.866 10 23 13.134 23 17C23 20.866 19.866 24 16 24ZM16 13.9673C14.3251 13.9673 12.9673 15.3251 12.9673 17C12.9673 18.6749 14.3251 20.0327 16 20.0327C17.6749 20.0327 19.0327 18.6749 19.0327 17C19.0327 15.3251 17.6749 13.9673 16 13.9673Z" fill="#EAD621"/> </svg>